# xmcd
#
# Track frame offsets:
#	150
#	1755
#	3197
#	4795
#	6325
#	7790
#	9142
#	15500
#	21015
#	26462
#	32075
#	38500
#	42460
#	43680
#	51347
#	58637
#	63960
#	69165
#	76032
#	77007
#	81412
#	82545
#	87092
#	93250
#	94227
#	100072
#	101027
#	102047
#	107185
#	113055
#	115960
#	119755
#	125512
#	127110
#	132157
#	133532
#	139047
#	140577
#	142220
#	143640
#	149155
#	150552
#	156265
#	157175
#	158595
#	160205
#	161137
#	162557
#	163955
#	165197
#	166637
#	168182
#	169002
#	170777
#	172307
#	173862
#	180085
#	180995
#	182525
#	183980
#	184890
#	186532
#	187995
#	189615
#	191092
#	192002
#	193422
#	194952
#	196460
#	197902
#	199365
#	205555
#	211447
#	212600
#	218712
#	221952
#	225182
#	227977
#	230407
#	235510
#	237985
#	243597
#	246095
#	247692
#	249267
#	250797
#	256977
#	258152
#	264290
#	268725
#	269892
#	272242
#	274550
#	276792
#	280287
#	284857
#	287930
#	290037
#	295862
#
# Disc length: 4025 seconds
#
# Revision: 0
# Processed by: cddbd v1.5.2PL0 Copyright (c) Steve Scherf et al.
# Submitted via: dBpowerAMP V4.0
#
DISCID=950fb763
DTITLE=Brett Duncan - Blues Acoustic Guitar Method
DYEAR=2003
DGENRE=Acoustic Blues
TTITLE0=6th String E Note (thickest string)
TTITLE1=5th String A Note
TTITLE2=4th String D Note
TTITLE3=3rd String G Note
TTITLE4=2nd String B Note
TTITLE5=1st String E Note (thinnest string)
TTITLE6=12 Bar Blues Progression
TTITLE7=Eight Bar Blues Progression
TTITLE8=Blues Rhythms, Triplet Rhythms
TTITLE9=The Swing Rhythm
TTITLE10=The Shuffle Rhythm
TTITLE11=The Shuffle Rhythm (closed position)
TTITLE12=Basic Blues Lead Guitar
TTITLE13=E Minor Pentatonic Scale (open position)
TTITLE14=E Blues Scale (open position)
TTITLE15=Combining Shuffle and Lead
TTITLE16=Open Position Scales In The Key Of A
TTITLE17=A Minor Pentatonic Scale (open position)
TTITLE18=A Blues Scale (open position)
TTITLE19=Blues Lead Guitar Techniques
TTITLE20=The Hammer-On
TTITLE21=The Pull-Off
TTITLE22=The Slide
TTITLE23=The Trill
TTITLE24=Turnaround Lick No.1 in E
TTITLE25=Advanced Lead Guitar Techniques
TTITLE26=The Bend
TTITLE27=The Release Bend
TTITLE28=Double-Note Licks
TTITLE29=Vibrato
TTITLE30=More Turnaround Licks
TTITLE31=Fingerpicking The Blues
TTITLE32=Right Arm and Hand Position
TTITLE33=Picking The Strings
TTITLE34=Picking With Fingers and Thumb
TTITLE35=Constant Bass Line
TTITLE36=Constant Bass Line In The Key Of E
TTITLE37=E Minor Pentatonic Scale (ext. position)
TTITLE38=E Blues Scale (ext. position)
TTITLE39=Alternating Thumb Style
TTITLE40=Acustic Slide Guitar
TTITLE41=The Thumb, The Slide, Damping
TTITLE42=Fretting, Sliding
TTITLE43=Slide Scale Patterns
TTITLE44=Track45  lesson 
TTITLE45=Track46  lesson 
TTITLE46=Track47  lesson 
TTITLE47=Track48  lesson 
TTITLE48=Track49  lesson 
TTITLE49=Track50  lesson 
TTITLE50=Track51  lesson 
TTITLE51=Track52  lesson 
TTITLE52=Track53  lesson 
TTITLE53=Track54  lesson 
TTITLE54=Track55  lesson 
TTITLE55=Track56  lesson 
TTITLE56=Track57  lesson 
TTITLE57=Track58  lesson 
TTITLE58=Track59  lesson 
TTITLE59=Track60  lesson 
TTITLE60=Track61  lesson 
TTITLE61=Track62  lesson 
TTITLE62=Track63  lesson 
TTITLE63=Track64  lesson 
TTITLE64=Track65  lesson 
TTITLE65=Track66  lesson 
TTITLE66=Track67  lesson 
TTITLE67=Track68  lesson 
TTITLE68=Track69  lesson 
TTITLE69=Track70  lesson 
TTITLE70=Track71  lesson 
TTITLE71=Track72  lesson 
TTITLE72=Track73  lesson 
TTITLE73=Track74  lesson 
TTITLE74=Track75  lesson 
TTITLE75=Track76  lesson 
TTITLE76=Track77  lesson 
TTITLE77=Track78  lesson 
TTITLE78=Track79  lesson 
TTITLE79=Track80  lesson 
TTITLE80=Track81  lesson 
TTITLE81=Track82  lesson 
TTITLE82=Track83  lesson 
TTITLE83=Track84  lesson 
TTITLE84=Track85  lesson 
TTITLE85=Track86  lesson 
TTITLE86=Track87  lesson 
TTITLE87=Track88  lesson 
TTITLE88=Track89  lesson 
TTITLE89=Track90  lesson 
TTITLE90=Track91  lesson 
TTITLE91=Track92  lesson 
TTITLE92=Track93  lesson 
TTITLE93=Track94  lesson 
TTITLE94=Track95  lesson 
TTITLE95=Track96  lesson 
TTITLE96=Track97  lesson 
TTITLE97=Track98  lesson 
TTITLE98=Track99  lesson 
EXTD=This is a CD that comes with a "how to" play acustic blues guitar. Hope people find it useful.
EXTT0=
EXTT1=
EXTT2=
EXTT3=
EXTT4=
EXTT5=
EXTT6=
EXTT7=
EXTT8=
EXTT9=
EXTT10=
EXTT11=
EXTT12=
EXTT13=
EXTT14=
EXTT15=
EXTT16=
EXTT17=
EXTT18=
EXTT19=
EXTT20=
EXTT21=
EXTT22=
EXTT23=
EXTT24=
EXTT25=
EXTT26=
EXTT27=
EXTT28=
EXTT29=
EXTT30=
EXTT31=
EXTT32=
EXTT33=
EXTT34=
EXTT35=
EXTT36=
EXTT37=
EXTT38=
EXTT39=
EXTT40=
EXTT41=
EXTT42=
EXTT43=
EXTT44=
EXTT45=
EXTT46=
EXTT47=
EXTT48=
EXTT49=
EXTT50=
EXTT51=
EXTT52=
EXTT53=
EXTT54=
EXTT55=
EXTT56=
EXTT57=
EXTT58=
EXTT59=
EXTT60=
EXTT61=
EXTT62=
EXTT63=
EXTT64=
EXTT65=
EXTT66=
EXTT67=
EXTT68=
EXTT69=
EXTT70=
EXTT71=
EXTT72=
EXTT73=
EXTT74=
EXTT75=
EXTT76=
EXTT77=
EXTT78=
EXTT79=
EXTT80=
EXTT81=
EXTT82=
EXTT83=
EXTT84=
EXTT85=
EXTT86=
EXTT87=
EXTT88=
EXTT89=
EXTT90=
EXTT91=
EXTT92=
EXTT93=
EXTT94=
EXTT95=
EXTT96=
EXTT97=
EXTT98=
PLAYORDER=
